<?xml version="1.0" encoding="UTF-8"?>
<mxfile host="app.diagrams.net" modified="2024-01-01T00:00:00.000Z" agent="5.0" version="22.1.11" etag="v1" type="device">
  <diagram name="Model Performance" id="model-performance">
    <mxGraphModel dx="1400" dy="600" grid="1" gridSize="10" guides="1" tooltips="1" connect="1" arrows="1" fold="1" page="1" pageScale="1" pageWidth="1400" pageHeight="600" math="0" shadow="0">
      <root>
        <mxCell id="0"/>
        <mxCell id="1" parent="0"/>
        
        <!-- Title Panel A -->
        <mxCell id="title-a" value="A. Model Performance by Health Outcome" style="text;html=1;strokeColor=none;fillColor=none;align=center;verticalAlign=middle;whiteSpace=wrap;rounded=0;fontSize=16;fontStyle=1;" parent="1" vertex="1">
          <mxGeometry x="200" y="20" width="400" height="30" as="geometry"/>
        </mxCell>
        
        <!-- Panel A Background -->
        <mxCell id="panel-a-bg" value="" style="rounded=0;whiteSpace=wrap;html=1;fillColor=#f5f5f5;strokeColor=#666666;" parent="1" vertex="1">
          <mxGeometry x="50" y="60" width="650" height="480" as="geometry"/>
        </mxCell>
        
        <!-- Total Cholesterol Bar -->
        <mxCell id="bar-cholesterol" value="" style="rounded=0;whiteSpace=wrap;html=1;fillColor=#1f77b4;strokeColor=#000000;opacity=70;" parent="1" vertex="1">
          <mxGeometry x="100" y="90" width="23" height="60" as="geometry"/>
        </mxCell>
        <mxCell id="label-cholesterol" value="Total Cholesterol" style="text;html=1;strokeColor=none;fillColor=none;align=right;verticalAlign=middle;whiteSpace=wrap;rounded=0;fontSize=12;" parent="1" vertex="1">
          <mxGeometry x="10" y="105" width="80" height="30" as="geometry"/>
        </mxCell>
        <mxCell id="value-cholesterol" value="0.023" style="text;html=1;strokeColor=none;fillColor=none;align=left;verticalAlign=middle;whiteSpace=wrap;rounded=0;fontSize=11;fontStyle=1;" parent="1" vertex="1">
          <mxGeometry x="130" y="105" width="40" height="30" as="geometry"/>
        </mxCell>
        
        <!-- Potassium Bar -->
        <mxCell id="bar-potassium" value="" style="rounded=0;whiteSpace=wrap;html=1;fillColor=#2ca02c;strokeColor=#000000;opacity=70;" parent="1" vertex="1">
          <mxGeometry x="100" y="170" width="71" height="60" as="geometry"/>
        </mxCell>
        <mxCell id="label-potassium" value="Potassium" style="text;html=1;strokeColor=none;fillColor=none;align=right;verticalAlign=middle;whiteSpace=wrap;rounded=0;fontSize=12;" parent="1" vertex="1">
          <mxGeometry x="10" y="185" width="80" height="30" as="geometry"/>
        </mxCell>
        <mxCell id="value-potassium" value="0.071" style="text;html=1;strokeColor=none;fillColor=none;align=left;verticalAlign=middle;whiteSpace=wrap;rounded=0;fontSize=11;fontStyle=1;" parent="1" vertex="1">
          <mxGeometry x="178" y="185" width="40" height="30" as="geometry"/>
        </mxCell>
        
        <!-- Systolic BP Bar -->
        <mxCell id="bar-systolic" value="" style="rounded=0;whiteSpace=wrap;html=1;fillColor=#ff7f0e;strokeColor=#000000;opacity=70;" parent="1" vertex="1">
          <mxGeometry x="100" y="250" width="115" height="60" as="geometry"/>
        </mxCell>
        <mxCell id="label-systolic" value="Systolic BP" style="text;html=1;strokeColor=none;fillColor=none;align=right;verticalAlign=middle;whiteSpace=wrap;rounded=0;fontSize=12;" parent="1" vertex="1">
          <mxGeometry x="10" y="265" width="80" height="30" as="geometry"/>
        </mxCell>
        <mxCell id="value-systolic" value="0.115" style="text;html=1;strokeColor=none;fillColor=none;align=left;verticalAlign=middle;whiteSpace=wrap;rounded=0;fontSize=11;fontStyle=1;" parent="1" vertex="1">
          <mxGeometry x="222" y="265" width="40" height="30" as="geometry"/>
        </mxCell>
        
        <!-- Diastolic BP Bar -->
        <mxCell id="bar-diastolic" value="" style="rounded=0;whiteSpace=wrap;html=1;fillColor=#ff7f0e;strokeColor=#000000;opacity=70;" parent="1" vertex="1">
          <mxGeometry x="100" y="330" width="141" height="60" as="geometry"/>
        </mxCell>
        <mxCell id="label-diastolic" value="Diastolic BP" style="text;html=1;strokeColor=none;fillColor=none;align=right;verticalAlign=middle;whiteSpace=wrap;rounded=0;fontSize=12;" parent="1" vertex="1">
          <mxGeometry x="10" y="345" width="80" height="30" as="geometry"/>
        </mxCell>
        <mxCell id="value-diastolic" value="0.141" style="text;html=1;strokeColor=none;fillColor=none;align=left;verticalAlign=middle;whiteSpace=wrap;rounded=0;fontSize=11;fontStyle=1;" parent="1" vertex="1">
          <mxGeometry x="248" y="345" width="40" height="30" as="geometry"/>
        </mxCell>
        
        <!-- Glucose Bar -->
        <mxCell id="bar-glucose" value="" style="rounded=0;whiteSpace=wrap;html=1;fillColor=#d62728;strokeColor=#000000;opacity=70;" parent="1" vertex="1">
          <mxGeometry x="100" y="410" width="611" height="60" as="geometry"/>
        </mxCell>
        <mxCell id="label-glucose" value="Glucose" style="text;html=1;strokeColor=none;fillColor=none;align=right;verticalAlign=middle;whiteSpace=wrap;rounded=0;fontSize=12;" parent="1" vertex="1">
          <mxGeometry x="10" y="425" width="80" height="30" as="geometry"/>
        </mxCell>
        <mxCell id="value-glucose" value="0.611" style="text;html=1;strokeColor=none;fillColor=none;align=left;verticalAlign=middle;whiteSpace=wrap;rounded=0;fontSize=11;fontStyle=1;" parent="1" vertex="1">
          <mxGeometry x="718" y="425" width="40" height="30" as="geometry"/>
        </mxCell>
        
        <!-- X-axis label Panel A -->
        <mxCell id="xlabel-a" value="RÂ² Score (Coefficient of Determination)" style="text;html=1;strokeColor=none;fillColor=none;align=center;verticalAlign=middle;whiteSpace=wrap;rounded=0;fontSize=13;" parent="1" vertex="1">
          <mxGeometry x="250" y="500" width="300" height="30" as="geometry"/>
        </mxCell>
        
        <!-- Legend Panel A -->
        <mxCell id="legend-moderate" value="Moderate Performance" style="text;html=1;strokeColor=none;fillColor=none;align=left;verticalAlign=middle;whiteSpace=wrap;rounded=0;fontSize=10;" parent="1" vertex="1">
          <mxGeometry x="520" y="80" width="150" height="20" as="geometry"/>
        </mxCell>
        <mxCell id="legend-excellent" value="Excellent Performance" style="text;html=1;strokeColor=none;fillColor=none;align=left;verticalAlign=middle;whiteSpace=wrap;rounded=0;fontSize=10;" parent="1" vertex="1">
          <mxGeometry x="520" y="105" width="150" height="20" as="geometry"/>
        </mxCell>
        
        <!-- Title Panel B -->
        <mxCell id="title-b" value="B. Available Sample Sizes" style="text;html=1;strokeColor=none;fillColor=none;align=center;verticalAlign=middle;whiteSpace=wrap;rounded=0;fontSize=16;fontStyle=1;" parent="1" vertex="1">
          <mxGeometry x="850" y="20" width="400" height="30" as="geometry"/>
        </mxCell>
        
        <!-- Panel B Background -->
        <mxCell id="panel-b-bg" value="" style="rounded=0;whiteSpace=wrap;html=1;fillColor=#f5f5f5;strokeColor=#666666;" parent="1" vertex="1">
          <mxGeometry x="750" y="60" width="600" height="480" as="geometry"/>
        </mxCell>
        
        <!-- Sample Size Bars -->
        <mxCell id="sample-cholesterol" value="" style="rounded=0;whiteSpace=wrap;html=1;fillColor=#1f77b4;strokeColor=#000000;opacity=70;" parent="1" vertex="1">
          <mxGeometry x="800" y="90" width="429" height="60" as="geometry"/>
        </mxCell>
        <mxCell id="sample-label-cholesterol" value="Total Cholesterol" style="text;html=1;strokeColor=none;fillColor=none;align=right;verticalAlign=middle;whiteSpace=wrap;rounded=0;fontSize=12;" parent="1" vertex="1">
          <mxGeometry x="710" y="105" width="80" height="30" as="geometry"/>
        </mxCell>
        <mxCell id="sample-value-cholesterol" value="1,717" style="text;html=1;strokeColor=none;fillColor=none;align=left;verticalAlign=middle;whiteSpace=wrap;rounded=0;fontSize=11;fontStyle=1;" parent="1" vertex="1">
          <mxGeometry x="1235" y="105" width="50" height="30" as="geometry"/>
        </mxCell>
        
        <mxCell id="sample-potassium" value="" style="rounded=0;whiteSpace=wrap;html=1;fillColor=#2ca02c;strokeColor=#000000;opacity=70;" parent="1" vertex="1">
          <mxGeometry x="800" y="170" width="435" height="60" as="geometry"/>
        </mxCell>
        <mxCell id="sample-label-potassium" value="Potassium" style="text;html=1;strokeColor=none;fillColor=none;align=right;verticalAlign=middle;whiteSpace=wrap;rounded=0;fontSize=12;" parent="1" vertex="1">
          <mxGeometry x="710" y="185" width="80" height="30" as="geometry"/>
        </mxCell>
        <mxCell id="sample-value-potassium" value="1,741" style="text;html=1;strokeColor=none;fillColor=none;align=left;verticalAlign=middle;whiteSpace=wrap;rounded=0;fontSize=11;fontStyle=1;" parent="1" vertex="1">
          <mxGeometry x="1240" y="185" width="50" height="30" as="geometry"/>
        </mxCell>
        
        <mxCell id="sample-systolic" value="" style="rounded=0;whiteSpace=wrap;html=1;fillColor=#ff7f0e;strokeColor=#000000;opacity=70;" parent="1" vertex="1">
          <mxGeometry x="800" y="250" width="392" height="60" as="geometry"/>
        </mxCell>
        <mxCell id="sample-label-systolic" value="Systolic BP" style="text;html=1;strokeColor=none;fillColor=none;align=right;verticalAlign=middle;whiteSpace=wrap;rounded=0;fontSize=12;" parent="1" vertex="1">
          <mxGeometry x="710" y="265" width="80" height="30" as="geometry"/>
        </mxCell>
        <mxCell id="sample-value-systolic" value="1,566" style="text;html=1;strokeColor=none;fillColor=none;align=left;verticalAlign=middle;whiteSpace=wrap;rounded=0;fontSize=11;fontStyle=1;" parent="1" vertex="1">
          <mxGeometry x="1198" y="265" width="50" height="30" as="geometry"/>
        </mxCell>
        
        <mxCell id="sample-diastolic" value="" style="rounded=0;whiteSpace=wrap;html=1;fillColor=#ff7f0e;strokeColor=#000000;opacity=70;" parent="1" vertex="1">
          <mxGeometry x="800" y="330" width="392" height="60" as="geometry"/>
        </mxCell>
        <mxCell id="sample-label-diastolic" value="Diastolic BP" style="text;html=1;strokeColor=none;fillColor=none;align=right;verticalAlign=middle;whiteSpace=wrap;rounded=0;fontSize=12;" parent="1" vertex="1">
          <mxGeometry x="710" y="345" width="80" height="30" as="geometry"/>
        </mxCell>
        <mxCell id="sample-value-diastolic" value="1,567" style="text;html=1;strokeColor=none;fillColor=none;align=left;verticalAlign=middle;whiteSpace=wrap;rounded=0;fontSize=11;fontStyle=1;" parent="1" vertex="1">
          <mxGeometry x="1198" y="345" width="50" height="30" as="geometry"/>
        </mxCell>
        
        <mxCell id="sample-glucose" value="" style="rounded=0;whiteSpace=wrap;html=1;fillColor=#d62728;strokeColor=#000000;opacity=70;" parent="1" vertex="1">
          <mxGeometry x="800" y="410" width="433" height="60" as="geometry"/>
        </mxCell>
        <mxCell id="sample-label-glucose" value="Glucose" style="text;html=1;strokeColor=none;fillColor=none;align=right;verticalAlign=middle;whiteSpace=wrap;rounded=0;fontSize=12;" parent="1" vertex="1">
          <mxGeometry x="710" y="425" width="80" height="30" as="geometry"/>
        </mxCell>
        <mxCell id="sample-value-glucose" value="1,730" style="text;html=1;strokeColor=none;fillColor=none;align=left;verticalAlign=middle;whiteSpace=wrap;rounded=0;fontSize=11;fontStyle=1;" parent="1" vertex="1">
          <mxGeometry x="1238" y="425" width="50" height="30" as="geometry"/>
        </mxCell>
        
        <!-- X-axis label Panel B -->
        <mxCell id="xlabel-b" value="Sample Size (n)" style="text;html=1;strokeColor=none;fillColor=none;align=center;verticalAlign=middle;whiteSpace=wrap;rounded=0;fontSize=13;" parent="1" vertex="1">
          <mxGeometry x="950" y="500" width="200" height="30" as="geometry"/>
        </mxCell>
      </root>
    </mxGraphModel>
  </diagram>
</mxfile>